<svg width="26" height="31" viewBox="0 0 26 31" fill="none" xmlns="http://www.w3.org/2000/svg">
<g clip-path="url(#clip0_40_49)">
<path fill-rule="evenodd" clip-rule="evenodd" d="M10.5036 -0.177085H16.497C18.4914 -0.177114 20.099 -0.177143 21.3632 -0.00715999C22.6758 0.169328 23.7811 0.546876 24.6589 1.42468C25.5368 2.30248 25.9142 3.4077 26.0908 4.72036C26.2607 5.9847 26.2607 7.59225 26.2607 9.58665V21.4134C26.2607 23.4078 26.2607 25.0153 26.0908 26.2797C25.9142 27.5924 25.5368 28.6975 24.6589 29.5754C23.7811 30.4532 22.6758 30.8307 21.3632 31.0072C20.099 31.1771 18.4913 31.1771 16.497 31.1771H10.5036C8.5092 31.1771 6.90163 31.1771 5.63732 31.0072C4.32466 30.8307 3.21941 30.4532 2.34163 29.5754C1.46383 28.6975 1.08628 27.5924 0.909794 26.2797C0.853356 25.8599 0.815658 25.4024 0.790487 24.9054C0.733496 24.7254 0.722398 24.5288 0.767227 24.3328C0.739825 23.4697 0.73984 22.4987 0.739869 21.4134V9.58665C0.73984 7.59225 0.73981 5.9847 0.909794 4.72036C1.08628 3.4077 1.46383 2.30248 2.34163 1.42468C3.21941 0.546876 4.32466 0.169328 5.6373 -0.00715999C6.90163 -0.177143 8.50918 -0.177114 10.5036 -0.177085ZM2.96638 24.6133C2.98855 25.1292 3.0233 25.5829 3.07778 25.9882C3.22166 27.0583 3.4848 27.6249 3.88842 28.0285C4.29203 28.4322 4.8587 28.6953 5.92879 28.8392C7.03034 28.9873 8.4903 28.9896 10.5836 28.9896H16.417C18.5103 28.9896 19.9702 28.9873 21.0718 28.8392C22.1418 28.6953 22.7085 28.4322 23.1122 28.0285C23.3984 27.7423 23.614 27.3739 23.7665 26.8021H7.66695C7.06288 26.8021 6.5732 26.3124 6.5732 25.7083C6.5732 25.1043 7.06288 24.6146 7.66695 24.6146H24.0341C24.0611 23.986 24.0696 23.265 24.072 22.4271H7.51787C6.09125 22.4271 5.59249 22.4364 5.21029 22.5389C4.16128 22.82 3.32501 23.5997 2.96638 24.6133ZM24.0732 20.2396H7.51787C7.46074 20.2396 7.40446 20.2396 7.349 20.2396C6.15613 20.2392 5.34216 20.2389 4.64412 20.426C4.01998 20.5932 3.44104 20.8664 2.92737 21.2253V9.66667C2.92737 7.57335 2.92969 6.11339 3.07778 5.01184C3.22166 3.94176 3.4848 3.37508 3.88842 2.97147C4.29203 2.56786 4.8587 2.30471 5.92879 2.16084C7.03034 2.01273 8.4903 2.01042 10.5836 2.01042H16.417C18.5103 2.01042 19.9702 2.01273 21.0718 2.16084C22.1418 2.30471 22.7085 2.56786 23.1122 2.97147C23.5157 3.37508 23.7789 3.94176 23.9227 5.01184C24.0709 6.11339 24.0732 7.57335 24.0732 9.66667V20.2396ZM6.5732 8.20833C6.5732 7.60428 7.06288 7.11458 7.66695 7.11458H19.3336C19.9377 7.11458 20.4274 7.60428 20.4274 8.20833C20.4274 8.81239 19.9377 9.30208 19.3336 9.30208H7.66695C7.06288 9.30208 6.5732 8.81239 6.5732 8.20833ZM6.5732 13.3125C6.5732 12.7085 7.06288 12.2188 7.66695 12.2188H14.9586C15.5627 12.2188 16.0524 12.7085 16.0524 13.3125C16.0524 13.9165 15.5627 14.4063 14.9586 14.4063H7.66695C7.06288 14.4063 6.5732 13.9165 6.5732 13.3125Z" fill="#B7C4E6"/>
</g>
<defs>
<clipPath id="clip0_40_49">
<rect width="26" height="31" fill="white"/>
</clipPath>
</defs>
</svg>
