<svg width="40" height="40" viewBox="0 0 40 40" fill="none" xmlns="http://www.w3.org/2000/svg">
<path d="M5.81463 10.0064C4.6052 12.0797 4.20715 14.9566 4.95025 17.9291C5.21767 18.9986 5.99507 20.3738 7.22713 21.9566C8.43528 23.5086 9.97735 25.1311 11.6106 26.6877C14.8491 29.7746 18.3344 32.4974 20 33.7566C20.9465 33.0411 22.4807 31.8529 24.223 30.3939C24.5257 30.1406 24.9074 29.9999 25.302 29.9999H25.4592C26.9774 29.9999 27.6827 31.8406 26.5205 32.8174C24.627 34.4093 22.9625 35.6966 21.9684 36.4471C20.8005 37.3289 19.1995 37.3289 18.0317 36.4471C16.3406 35.1702 12.7097 32.3403 9.31082 29.1008C7.61224 27.4818 5.9431 25.7336 4.59678 24.0041C3.27437 22.3053 2.15402 20.4878 1.71645 18.7374C0.792875 15.0432 1.22816 11.2535 2.93537 8.3268C4.67154 5.3505 7.7003 3.33325 11.6667 3.33325C15.984 3.33325 18.4949 6.59612 19.824 9.25455C19.8845 9.3755 19.9432 9.49632 20 9.61677C20.0569 9.49632 20.1155 9.3755 20.176 9.25457C21.5052 6.59612 24.016 3.33325 28.3333 3.33325C32.2997 3.33325 35.3285 5.3505 37.0647 8.3268C38.5197 10.8211 39.0508 13.9423 38.6042 17.0971C38.5014 17.8243 37.8568 18.3333 37.1225 18.3333C36.0474 18.3333 35.2817 17.2643 35.3979 16.1954C35.629 14.0667 35.2285 11.7946 34.1853 10.0064C33.0049 7.98267 31.0337 6.66659 28.3333 6.66659C25.984 6.66659 24.3282 8.40372 23.1574 10.7453C22.5949 11.8704 22.2125 13.0123 21.9705 13.8835C21.8504 14.3159 21.767 14.6738 21.7144 14.9195C21.5279 15.7898 20.5239 15.8333 20 15.8333C19.4762 15.8333 18.4705 15.7817 18.2857 14.9195C18.233 14.6739 18.1497 14.3159 18.0295 13.8835C17.7875 13.0123 17.4052 11.8704 16.8427 10.7453C15.6718 8.40372 14.016 6.66659 11.6667 6.66659C8.96634 6.66659 6.99512 7.98267 5.81463 10.0064Z" fill="#FF0000"/>
<path d="M26.5318 16.0101C26.2763 15.4137 25.6976 15.0198 25.0489 15.0007C24.4003 14.9817 23.7994 15.3409 23.5093 15.9213L20.6366 21.6667H14.9999C14.0794 21.6667 13.3333 22.4128 13.3333 23.3333C13.3333 24.2538 14.0794 25 14.9999 25H21.6666C22.2979 25 22.8749 24.6433 23.1573 24.0787L24.8836 20.6262L28.4679 28.9898C28.7024 29.5368 29.2108 29.9173 29.8016 29.9882C30.3924 30.059 30.9762 29.8093 31.3333 29.3333L35.8333 23.3333H38.3333C39.2538 23.3333 39.9999 22.5872 39.9999 21.6667C39.9999 20.7462 39.2538 20 38.3333 20H34.9999C34.4753 20 33.9813 20.247 33.6666 20.6667L30.3963 25.0272L26.5318 16.0101Z" fill="#FF0000"/>
</svg>
