<svg width="26" height="25" viewBox="0 0 26 25" fill="none" xmlns="http://www.w3.org/2000/svg">
<path d="M9.89998 15.6249C9.6159 15.6249 9.34346 15.5152 9.14258 15.3198C8.94171 15.1245 8.82886 14.8595 8.82886 14.5833V12.4999C8.82886 12.2237 8.94171 11.9587 9.14258 11.7633C9.34346 11.568 9.6159 11.4583 9.89998 11.4583C10.1841 11.4583 10.4565 11.568 10.6574 11.7633C10.8583 11.9587 10.9711 12.2237 10.9711 12.4999V14.5833C10.9711 14.8595 10.8583 15.1245 10.6574 15.3198C10.4565 15.5152 10.1841 15.6249 9.89998 15.6249Z" fill="white"/>
<path d="M16.3265 15.6249C16.0424 15.6249 15.77 15.5152 15.5691 15.3198C15.3682 15.1245 15.2554 14.8595 15.2554 14.5833V12.4999C15.2554 12.2237 15.3682 11.9587 15.5691 11.7633C15.77 11.568 16.0424 11.4583 16.3265 11.4583C16.6106 11.4583 16.883 11.568 17.0839 11.7633C17.2848 11.9587 17.3976 12.2237 17.3976 12.4999V14.5833C17.3976 14.8595 17.2848 15.1245 17.0839 15.3198C16.883 15.5152 16.6106 15.6249 16.3265 15.6249Z" fill="white"/>
<path d="M6.68658 8.33345C6.54561 8.33424 6.40587 8.30796 6.27537 8.25612C6.14486 8.20429 6.02617 8.12791 5.92608 8.03136L2.71271 4.90636C2.51102 4.71021 2.39771 4.44418 2.39771 4.16678C2.39771 4.02943 2.42552 3.89342 2.47957 3.76652C2.53362 3.63962 2.61284 3.52432 2.71271 3.4272C2.81258 3.33007 2.93115 3.25303 3.06163 3.20047C3.19212 3.1479 3.33197 3.12085 3.47321 3.12085C3.75845 3.12085 4.03201 3.23105 4.23371 3.4272L7.44707 6.5522C7.54747 6.64903 7.62715 6.76424 7.68153 6.89118C7.73591 7.01811 7.76391 7.15427 7.76391 7.29178C7.76391 7.42929 7.73591 7.56544 7.68153 7.69238C7.62715 7.81932 7.54747 7.93453 7.44707 8.03136C7.34699 8.12791 7.22829 8.20429 7.09779 8.25612C6.96729 8.30796 6.82754 8.33424 6.68658 8.33345Z" fill="white"/>
<path d="M19.54 8.33345C19.399 8.33424 19.2593 8.30796 19.1288 8.25612C18.9983 8.20429 18.8796 8.12791 18.7795 8.03136C18.6791 7.93453 18.5994 7.81932 18.545 7.69238C18.4906 7.56544 18.4626 7.42929 18.4626 7.29178C18.4626 7.15427 18.4906 7.01811 18.545 6.89118C18.5994 6.76424 18.6791 6.64903 18.7795 6.5522L21.9929 3.4272C22.1945 3.23105 22.4681 3.12085 22.7533 3.12085C23.0386 3.12085 23.3121 3.23105 23.5138 3.4272C23.7155 3.62334 23.8289 3.88938 23.8289 4.16678C23.8289 4.44418 23.7155 4.71021 23.5138 4.90636L20.3005 8.03136C20.2004 8.12791 20.0817 8.20429 19.9512 8.25612C19.8207 8.30796 19.6809 8.33424 19.54 8.33345Z" fill="white"/>
<path d="M22.7534 20.8333H3.47322C3.18914 20.8333 2.9167 20.7236 2.71582 20.5282C2.51495 20.3329 2.4021 20.0679 2.4021 19.7917V15.1042C2.4021 12.3415 3.5306 9.69198 5.53935 7.73847C7.54809 5.78497 10.2725 4.6875 13.1133 4.6875C15.9541 4.6875 18.6786 5.78497 20.6873 7.73847C22.6961 9.69198 23.8246 12.3415 23.8246 15.1042V19.7917C23.8246 20.0679 23.7117 20.3329 23.5108 20.5282C23.31 20.7236 23.0375 20.8333 22.7534 20.8333ZM4.54434 18.75H21.6823V15.1042C21.6823 12.894 20.7795 10.7744 19.1725 9.21161C17.5655 7.64881 15.386 6.77083 13.1133 6.77083C10.8407 6.77083 8.66114 7.64881 7.05414 9.21161C5.44715 10.7744 4.54434 12.894 4.54434 15.1042V18.75Z" fill="white"/>
</svg>
