<svg width="33" height="38" viewBox="0 0 33 38" fill="none" xmlns="http://www.w3.org/2000/svg">
<g clip-path="url(#clip0_229_279)">
<path d="M19.1301 37.6942C25.2517 36.4671 33.1667 32.0634 33.1667 20.6761C33.1667 10.3133 25.5815 3.41282 20.1271 0.242124C18.9169 -0.461466 17.5 0.463826 17.5 1.86376V5.44453C17.5 8.26818 16.3129 13.4222 13.0141 15.566C11.3299 16.6605 9.51102 15.0224 9.30633 13.0242L9.13825 11.3835C8.94287 9.47602 7.00022 8.31809 5.47576 9.48105C2.73705 11.5703 -0.125 15.2288 -0.125 20.6761C-0.125 34.602 10.2324 38.0835 15.411 38.0835C15.7122 38.0835 16.0289 38.0745 16.3585 38.0555C13.8013 37.8369 9.66667 36.2503 9.66667 31.1199C9.66667 27.1066 12.5945 24.3916 14.819 23.0719C15.4173 22.7168 16.1176 23.1778 16.1176 23.8734V25.0273C16.1176 25.9103 16.4591 27.2907 17.2721 28.2356C18.1921 29.3049 19.5423 28.1847 19.6512 26.7784C19.6857 26.3349 20.1318 26.0521 20.516 26.2767C21.7719 27.0107 23.375 28.5785 23.375 31.1199C23.375 35.1305 21.164 36.9755 19.1301 37.6942Z" fill="#ED4C16"/>
</g>
<defs>
<clipPath id="clip0_229_279">
<rect width="33" height="38" fill="white"/>
</clipPath>
</defs>
</svg>
