<svg width="30" height="30" viewBox="0 0 30 30" fill="none" xmlns="http://www.w3.org/2000/svg">
<path opacity="0.5" d="M15 30C7.92893 30 4.39339 30 2.1967 27.8032C-1.78814e-07 25.6066 0 22.071 0 15C0 7.92893 -1.78814e-07 4.39339 2.1967 2.1967C4.39339 -1.78814e-07 7.92893 0 15 0C22.071 0 25.6066 -1.78814e-07 27.8032 2.1967C30 4.39339 30 7.92893 30 15C30 22.071 30 25.6066 27.8032 27.8032C25.6066 30 22.071 30 15 30Z" fill="#B7C4E6"/>
<path d="M27.4713 21.5082C27.2986 21.0888 26.8669 20.8371 26.3488 21.0049L24.1037 21.7598C21.7723 22.5148 19.1818 22.2631 17.0231 21.2565L17.1958 21.0888C18.6637 19.6628 18.6637 17.3141 17.1958 15.8881L10.7197 9.597C9.59713 8.33878 7.52476 8.33878 6.31588 9.51312L2.51654 13.2039C2.25749 13.4556 2.08479 13.7911 2.08479 14.2105C2.08479 14.6299 2.25749 14.9654 2.51654 15.2171C3.03463 15.7204 3.81177 15.8042 4.32986 15.3848L8.56094 12.7006L10.9787 15.0493L8.73364 17.2302C7.35206 17.1463 5.88413 17.3141 4.50256 17.7335L2.25749 18.4885C1.82575 18.6562 1.5667 19.0756 1.7394 19.5789C1.91209 19.9983 2.34384 20.25 2.86193 20.0822L5.107 19.3273C8.21555 18.3207 11.6695 18.9917 14.0873 21.1727C16.0733 22.9342 18.6637 23.8569 21.3406 23.8569C22.4631 23.8569 23.672 23.6891 24.7945 23.3536L27.0396 22.5986C27.385 22.4309 27.644 21.9276 27.4713 21.5082Z" fill="#B7C4E6"/>
<path d="M20.6497 15.0493C23.0675 15.0493 24.9671 13.2039 24.9671 10.8552C24.9671 8.50653 23.0675 6.66113 20.6497 6.66113C18.2319 6.66113 16.3323 8.50653 16.3323 10.8552C16.3323 13.2039 18.2319 15.0493 20.6497 15.0493Z" fill="#B7C4E6"/>
</svg>
