<svg width="44" height="32" viewBox="0 0 44 32" fill="none" xmlns="http://www.w3.org/2000/svg">
<path d="M37.0277 11.728C33.4048 11.728 30.4595 14.6749 30.4595 18.2955C30.4595 21.9161 33.404 24.863 37.0277 24.863C40.6474 24.863 43.5936 21.9169 43.5936 18.2955C43.5936 14.6742 40.6475 11.728 37.0277 11.728Z" fill="#010002"/>
<path d="M32.8705 28.5378C31.7539 27.9571 29.3011 27.4621 29.3011 27.4621C29.2641 27.4558 29.2272 27.4503 29.1902 27.4447L29.1091 27.4329C29.7812 26.2179 30.0109 24.7276 29.7056 23.2506C29.3892 21.7185 28.5488 20.3752 27.3936 19.5482C28.8046 12.7337 31.8317 8.89432 36.6445 7.81396C39.028 7.27968 39.6764 5.31867 39.5088 3.80151C39.3034 1.95937 37.8398 0 35.5279 0C35.2123 0 34.8858 0.0369803 34.5601 0.110166C26.4321 1.9342 21.2984 8.60003 19.3028 19.9244C16.3992 20.8112 12.5945 22.0058 8.77796 23.4088C6.86583 24.1123 5.4572 25.4642 4.84499 27.1434C2.93286 27.4274 1.66275 29.0241 0.595749 30.3649L0 31.1015L0.969424 31.8853L1.62016 31.0858C3.15697 28.5866 5.47753 28.5063 5.47753 28.5063C5.84733 28.4426 6.17783 28.4135 6.48713 28.4135C8.10186 28.4135 9.6804 29.0855 10.8206 30.2627L11.4486 30.9079L12.0741 30.2611C13.2112 29.0862 14.7898 28.4134 16.4045 28.4134C18.2537 28.4134 19.9817 29.2538 21.1448 30.7206L21.8302 31.587L22.5149 30.7206C23.9737 28.8777 26.336 28.0467 28.6062 28.5724L29.1917 28.7117C29.1917 28.7117 31.2951 29.1287 32.2945 29.6504C33.8715 30.5514 34.8361 30.9724 36.4635 31.0589L36.956 31.0865L37.026 29.8362L36.5303 29.811C35.1698 29.7379 34.0532 29.1547 32.8705 28.5378Z" fill="#010002"/>
</svg>
