<svg width="44" height="44" viewBox="0 0 44 44" fill="none" xmlns="http://www.w3.org/2000/svg">
<path d="M12.3338 37.6819C12.321 37.6945 12.3037 37.7015 12.2857 37.7015C12.2677 37.7015 12.2504 37.6945 12.2376 37.6819C11.5501 36.9188 4.20068 28.5863 4.20068 23.0656C4.20068 16.2319 8.66943 14.6506 12.2857 14.6506C15.6132 14.6506 19.8894 16.4381 19.8894 23.0656C19.8894 28.765 12.9732 36.9325 12.3338 37.6819Z" stroke="black" stroke-width="2.8125"/>
<path d="M12.0449 24.8394C13.8485 24.8394 15.3105 23.3773 15.3105 21.5737C15.3105 19.7702 13.8485 18.3081 12.0449 18.3081C10.2414 18.3081 8.7793 19.7702 8.7793 21.5737C8.7793 23.3773 10.2414 24.8394 12.0449 24.8394Z" stroke="black" stroke-width="2.8125"/>
<path d="M34.0863 23.9044C34.0723 23.9174 34.0539 23.9247 34.0347 23.9247C34.0156 23.9247 33.9972 23.9174 33.9832 23.9044C33.385 23.2169 27.665 16.72 27.665 12.3956C27.665 7.00561 31.185 5.76123 34.0382 5.76123C36.6575 5.76123 40.0263 7.13623 40.0263 12.3956C40.0263 16.8575 34.65 23.2444 34.0863 23.9044Z" stroke="black" stroke-width="2.8125"/>
<path d="M33.8457 14.4856C35.2696 14.4856 36.4238 13.3313 36.4238 11.9075C36.4238 10.4836 35.2696 9.32935 33.8457 9.32935C32.4218 9.32935 31.2676 10.4836 31.2676 11.9075C31.2676 13.3313 32.4218 14.4856 33.8457 14.4856Z" stroke="black" stroke-width="2.8125"/>
<path d="M12.2856 37.7368C13.1641 38.0028 14.06 38.2073 14.9669 38.3487" stroke="black" stroke-width="2.8125"/>
<path d="M16.9675 38.548C18.8857 38.6305 20.9894 38.3555 22.3988 37.118C26.3863 33.6186 24.3857 29.3836 27.0394 27.0049C28.0411 26.1261 29.188 25.4282 30.4288 24.9424" stroke="black" stroke-width="2.8125" stroke-dasharray="7.31 2.74"/>
<path d="M31.3706 24.6126C32.2391 24.3179 33.1317 24.0994 34.0381 23.9595" stroke="black" stroke-width="2.8125"/>
</svg>
