<svg width="30" height="30" viewBox="0 0 30 30" fill="none" xmlns="http://www.w3.org/2000/svg">
<g style="mix-blend-mode:plus-lighter" opacity="0.5">
<path d="M15 30C7.92893 30 4.39339 30 2.1967 27.8032C-1.78814e-07 25.6066 0 22.071 0 15C0 7.92893 -1.78814e-07 4.39339 2.1967 2.1967C4.39339 -1.78814e-07 7.92893 0 15 0C22.071 0 25.6066 -1.78814e-07 27.8032 2.1967C30 4.39339 30 7.92893 30 15C30 22.071 30 25.6066 27.8032 27.8032C25.6066 30 22.071 30 15 30Z" fill="#B7C4E6"/>
</g>
<path d="M15 16.0526V11.8421M24.4737 8.68416L22.3685 6.5789M12.8948 4.47363H17.1053M15 24.4736C10.3492 24.4736 6.57898 20.7034 6.57898 16.0526C6.57898 11.4018 10.3492 7.63153 15 7.63153C19.6509 7.63153 23.4211 11.4018 23.4211 16.0526C23.4211 20.7034 19.6509 24.4736 15 24.4736Z" stroke="white" stroke-width="3" stroke-linecap="round" stroke-linejoin="round"/>
</svg>
