<svg width="40" height="30" viewBox="0 0 40 30" fill="none" xmlns="http://www.w3.org/2000/svg">
<path d="M39.5563 24.6469C39.2938 24.0063 38.6375 23.6219 37.85 23.8781L34.4375 25.0313C30.8938 26.1844 26.9563 25.8 23.675 24.2625L23.9375 24.0063C26.1688 21.8281 26.1688 18.2406 23.9375 16.0625L14.0938 6.45313C12.3875 4.53125 9.2375 4.53125 7.4 6.325L1.625 11.9625C1.23125 12.3469 0.96875 12.8594 0.96875 13.5C0.96875 14.1406 1.23125 14.6531 1.625 15.0375C2.4125 15.8063 3.59375 15.9344 4.38125 15.2938L10.8125 11.1938L14.4875 14.7813L11.075 18.1125C8.975 17.9844 6.74375 18.2406 4.64375 18.8813L1.23125 20.0344C0.575 20.2906 0.18125 20.9313 0.44375 21.7C0.70625 22.3406 1.3625 22.725 2.15 22.4688L5.5625 21.3156C10.2875 19.7781 15.5375 20.8031 19.2125 24.1344C22.2313 26.825 26.1688 28.2344 30.2375 28.2344C31.9438 28.2344 33.7813 27.9781 35.4875 27.4656L38.9 26.3125C39.425 26.0563 39.8188 25.2875 39.5563 24.6469Z" fill="#B7C4E6"/>
<path d="M29.1875 14.7812C32.8625 14.7812 35.75 11.9625 35.75 8.375C35.75 4.7875 32.8625 1.96875 29.1875 1.96875C25.5125 1.96875 22.625 4.7875 22.625 8.375C22.625 11.9625 25.5125 14.7812 29.1875 14.7812Z" fill="#B7C4E6"/>
</svg>
