<svg width="41" height="41" viewBox="0 0 41 41" fill="none" xmlns="http://www.w3.org/2000/svg">
<path d="M39.2916 20.4999C39.2916 30.8782 30.8782 39.2916 20.4999 39.2916C10.1216 39.2916 1.70825 30.8782 1.70825 20.4999C1.70825 10.1216 10.1216 1.70825 20.4999 1.70825C30.8782 1.70825 39.2916 10.1216 39.2916 20.4999ZM5.13659 20.4999C5.13659 28.9849 12.015 35.8633 20.4999 35.8633C28.9849 35.8633 35.8633 28.9849 35.8633 20.4999C35.8633 12.015 28.9849 5.13659 20.4999 5.13659C12.015 5.13659 5.13659 12.015 5.13659 20.4999Z" fill="#0F0F0F"/>
<path d="M20.5001 8.54175C19.5566 8.54175 18.7917 9.30659 18.7917 10.2501V21.2974C18.7917 21.2974 18.7917 21.7427 19.0082 22.0777C19.1531 22.3618 19.3789 22.6087 19.6756 22.78L27.5678 27.3367C28.3849 27.8083 29.4297 27.5283 29.9014 26.7112C30.3731 25.8941 30.0932 24.8493 29.2761 24.3777L22.2084 20.2971V10.2501C22.2084 9.3066 21.4436 8.54175 20.5001 8.54175Z" fill="#0F0F0F"/>
</svg>
