<svg width="40" height="40" viewBox="0 0 40 40" fill="none" xmlns="http://www.w3.org/2000/svg">
<rect width="40" height="40" rx="13" fill="#242531"/>
<path opacity="0.9" d="M18.375 8.25H16.125C10.5 8.25 8.25 10.5 8.25 16.125V22.875C8.25 28.5 10.5 30.75 16.125 30.75H22.875C28.5 30.75 30.75 28.5 30.75 22.875V20.625" stroke="white" stroke-width="2" stroke-linecap="round" stroke-linejoin="round"/>
<path d="M24.0449 9.39724L15.1799 18.2623C14.8424 18.5998 14.5049 19.2635 14.4374 19.7473L13.9536 23.1335C13.7736 24.3598 14.6399 25.2148 15.8661 25.046L19.2524 24.5623C19.7249 24.4948 20.3886 24.1573 20.7374 23.8198L29.6024 14.9547C31.1324 13.4247 31.8524 11.6472 29.6024 9.39724C27.3524 7.14723 25.5749 7.86723 24.0449 9.39724Z" stroke="white" stroke-width="2" stroke-miterlimit="10" stroke-linecap="round" stroke-linejoin="round"/>
<path opacity="0.54" d="M22.774 10.6686C23.5277 13.3574 25.6315 15.4611 28.3315 16.2261" stroke="white" stroke-width="2" stroke-miterlimit="10" stroke-linecap="round" stroke-linejoin="round"/>
</svg>
